<svg xmlns="http://www.w3.org/2000/svg" width="27.629" height="27.629" viewBox="0 0 27.629 27.629"><defs><style>.a{fill:#fff;}</style></defs><g transform="translate(9.21)"><path class="a" d="M179.762,13.3a1.152,1.152,0,0,0-1.03-.637h-2.3V1.151a1.151,1.151,0,0,0-2.3,0V12.663h-2.3a1.151,1.151,0,0,0-.921,1.842l3.454,4.6c.015.02.038.026.054.045a1.123,1.123,0,0,0,.266.222,1.186,1.186,0,0,0,.119.079,1.08,1.08,0,0,0,.966,0,1.17,1.17,0,0,0,.117-.079,1.124,1.124,0,0,0,.266-.222c.015-.018.039-.025.054-.045l3.454-4.6A1.15,1.15,0,0,0,179.762,13.3Z" transform="translate(-170.674)"/></g><g transform="translate(0 17.268)"><path class="a" d="M26.478,320a1.151,1.151,0,0,0-1.151,1.151V324.6a3.458,3.458,0,0,1-3.454,3.454H5.756A3.458,3.458,0,0,1,2.3,324.6v-3.454a1.151,1.151,0,0,0-2.3,0V324.6a5.763,5.763,0,0,0,5.756,5.756H21.873a5.763,5.763,0,0,0,5.756-5.756v-3.454A1.151,1.151,0,0,0,26.478,320Z" transform="translate(0 -320)"/></g></svg>